<svg width="565" height="375" viewBox="0 0 565 375" fill="none" xmlns="http://www.w3.org/2000/svg">
<rect x="88" y="120" width="373" height="205" rx="6" fill="url(#paint0_linear_482_247)"/>
<circle cx="461" cy="128" r="81.5" stroke="#FF3E68" stroke-opacity="0.16"/>
<circle cx="461" cy="128" r="75" fill="#FF3E68"/>
<circle cx="109.5" cy="302.5" r="49.5" fill="#FF7A97"/>
<circle cx="109.5" cy="302.5" r="44" stroke="#FF3E68"/>
<rect x="100" y="87" width="400" height="225" rx="6" fill="url(#paint1_linear_482_247)"/>
<rect x="106.5" y="107.5" width="387" height="198" rx="2.5" fill="white" fill-opacity="0.85" stroke="#FFA3B6"/>
<circle cx="112" cy="98" r="4" fill="#FAFAFA"/>
<circle cx="126" cy="98" r="4" fill="#FAFAFA"/>
<circle cx="140" cy="98" r="4" fill="#FAFAFA"/>
<rect x="150" y="150" width="136" height="12" rx="2" fill="#FFA3B6"/>
<rect x="150" y="168" width="167" height="12" rx="2" fill="#FFA3B6"/>
<rect x="150" y="195" width="97" height="6" rx="2" fill="#FFA3B6" fill-opacity="0.5"/>
<rect x="150" y="207" width="112" height="6" rx="2" fill="#FFA3B6" fill-opacity="0.5"/>
<rect x="150" y="219" width="97" height="6" rx="2" fill="#FFA3B6" fill-opacity="0.5"/>
<rect x="150" y="240" width="97" height="6" rx="2" fill="#FFA3B6" fill-opacity="0.5"/>
<rect x="150" y="252" width="112" height="6" rx="2" fill="#FFA3B6" fill-opacity="0.5"/>
<rect x="150" y="264" width="97" height="6" rx="2" fill="#FFA3B6" fill-opacity="0.5"/>
<rect x="375" y="150" width="56" height="3" rx="1.5" fill="#FFA3B6" fill-opacity="0.5"/>
<rect x="375" y="157" width="64" height="3" rx="1.5" fill="#FFA3B6" fill-opacity="0.5"/>
<rect x="375" y="164" width="56" height="3" rx="1.5" fill="#FFA3B6" fill-opacity="0.5"/>
<rect x="375" y="171" width="64" height="3" rx="1.5" fill="#FFA3B6" fill-opacity="0.5"/>
<rect x="375" y="195" width="64" height="79" rx="2" fill="#FFA3B6"/>
<line x1="344.5" y1="150.5" x2="344.5" y2="280.5" stroke="#FFA3B6" stroke-opacity="0.3" stroke-linecap="round"/>
<line x1="140.5" y1="108.5" x2="140.5" y2="305.5" stroke="#FFA3B6" stroke-opacity="0.3" stroke-linecap="round"/>
<line x1="461.5" y1="108.5" x2="461.5" y2="305.5" stroke="#FFA3B6" stroke-opacity="0.3" stroke-linecap="round"/>
<circle cx="443" cy="285" r="31" fill="#DB113F"/>
<path d="M228.5 338C228.5 338.276 228.724 338.5 229 338.5C229.276 338.5 229.5 338.276 229.5 338L228.5 338ZM229 264.113L226.113 267L229 269.887L231.887 267L229 264.113ZM228.5 268.972C228.5 269.248 228.724 269.472 229 269.472C229.276 269.472 229.5 269.248 229.5 268.972L228.5 268.972ZM229.5 276.861C229.5 276.585 229.276 276.361 229 276.361C228.724 276.361 228.5 276.585 228.5 276.861L229.5 276.861ZM228.5 280.806C228.5 281.082 228.724 281.306 229 281.306C229.276 281.306 229.5 281.082 229.5 280.806L228.5 280.806ZM229.5 288.694C229.5 288.418 229.276 288.194 229 288.194C228.724 288.194 228.5 288.418 228.5 288.694L229.5 288.694ZM228.5 292.639C228.5 292.915 228.724 293.139 229 293.139C229.276 293.139 229.5 292.915 229.5 292.639L228.5 292.639ZM229.5 300.528C229.5 300.252 229.276 300.028 229 300.028C228.724 300.028 228.5 300.252 228.5 300.528L229.5 300.528ZM228.5 304.472C228.5 304.748 228.724 304.972 229 304.972C229.276 304.972 229.5 304.748 229.5 304.472L228.5 304.472ZM229.5 312.361C229.5 312.085 229.276 311.861 229 311.861C228.724 311.861 228.5 312.085 228.5 312.361L229.5 312.361ZM228.5 316.306C228.5 316.582 228.724 316.806 229 316.806C229.276 316.806 229.5 316.582 229.5 316.306L228.5 316.306ZM229.5 324.194C229.5 323.918 229.276 323.694 229 323.694C228.724 323.694 228.5 323.918 228.5 324.194L229.5 324.194ZM228.5 328.139C228.5 328.415 228.724 328.639 229 328.639C229.276 328.639 229.5 328.415 229.5 328.139L228.5 328.139ZM229.5 336.028C229.5 335.752 229.276 335.528 229 335.528C228.724 335.528 228.5 335.752 228.5 336.028L229.5 336.028ZM228.5 267L228.5 268.972L229.5 268.972L229.5 267L228.5 267ZM228.5 276.861L228.5 280.806L229.5 280.806L229.5 276.861L228.5 276.861ZM228.5 288.694L228.5 292.639L229.5 292.639L229.5 288.694L228.5 288.694ZM228.5 300.528L228.5 304.472L229.5 304.472L229.5 300.528L228.5 300.528ZM228.5 312.361L228.5 316.306L229.5 316.306L229.5 312.361L228.5 312.361ZM228.5 324.194L228.5 328.139L229.5 328.139L229.5 324.194L228.5 324.194ZM228.5 336.028L228.5 338L229.5 338L229.5 336.028L228.5 336.028Z" fill="#FF7A97"/>
<rect x="128.25" y="4.25" width="34.5" height="34.5" rx="2.75" fill="url(#paint2_linear_482_247)" stroke="#D3D5D7" stroke-width="0.5"/>
<path d="M139.75 16.75V25.25M145.25 16.75V25.25M140 21.25H145M150.25 25.25V16.75L148.75 18.25M150.25 25.25H148.75M150.25 25.25H152.25" stroke="#576167" stroke-width="1.5" stroke-linecap="round" stroke-linejoin="round"/>
<path d="M200 21H200.5C200.5 20.7239 200.276 20.5 200 20.5V21ZM200 158.887L202.887 156L200 153.113L197.113 156L200 158.887ZM165.056 21.5C165.332 21.5 165.556 21.2761 165.556 21C165.556 20.7239 165.332 20.5 165.056 20.5V21.5ZM173.278 20.5C173.002 20.5 172.778 20.7239 172.778 21C172.778 21.2761 173.002 21.5 173.278 21.5V20.5ZM177.389 21.5C177.665 21.5 177.889 21.2761 177.889 21C177.889 20.7239 177.665 20.5 177.389 20.5V21.5ZM185.611 20.5C185.335 20.5 185.111 20.7239 185.111 21C185.111 21.2761 185.335 21.5 185.611 21.5V20.5ZM189.722 21.5C189.998 21.5 190.222 21.2761 190.222 21C190.222 20.7239 189.998 20.5 189.722 20.5V21.5ZM197.944 20.5C197.668 20.5 197.444 20.7239 197.444 21C197.444 21.2761 197.668 21.5 197.944 21.5V20.5ZM199.5 23.0455C199.5 23.3216 199.724 23.5455 200 23.5455C200.276 23.5455 200.5 23.3216 200.5 23.0455H199.5ZM200.5 31.2273C200.5 30.9511 200.276 30.7273 200 30.7273C199.724 30.7273 199.5 30.9511 199.5 31.2273H200.5ZM199.5 35.3182C199.5 35.5943 199.724 35.8182 200 35.8182C200.276 35.8182 200.5 35.5943 200.5 35.3182H199.5ZM200.5 43.5C200.5 43.2239 200.276 43 200 43C199.724 43 199.5 43.2239 199.5 43.5H200.5ZM199.5 47.5909C199.5 47.8671 199.724 48.0909 200 48.0909C200.276 48.0909 200.5 47.8671 200.5 47.5909H199.5ZM200.5 55.7727C200.5 55.4966 200.276 55.2727 200 55.2727C199.724 55.2727 199.5 55.4966 199.5 55.7727H200.5ZM199.5 59.8636C199.5 60.1398 199.724 60.3636 200 60.3636C200.276 60.3636 200.5 60.1398 200.5 59.8636H199.5ZM200.5 68.0455C200.5 67.7693 200.276 67.5455 200 67.5455C199.724 67.5455 199.5 67.7693 199.5 68.0455H200.5ZM199.5 72.1364C199.5 72.4125 199.724 72.6364 200 72.6364C200.276 72.6364 200.5 72.4125 200.5 72.1364H199.5ZM200.5 80.3182C200.5 80.042 200.276 79.8182 200 79.8182C199.724 79.8182 199.5 80.042 199.5 80.3182H200.5ZM199.5 84.4091C199.5 84.6852 199.724 84.9091 200 84.9091C200.276 84.9091 200.5 84.6852 200.5 84.4091H199.5ZM200.5 92.5909C200.5 92.3148 200.276 92.0909 200 92.0909C199.724 92.0909 199.5 92.3148 199.5 92.5909H200.5ZM199.5 96.6818C199.5 96.958 199.724 97.1818 200 97.1818C200.276 97.1818 200.5 96.958 200.5 96.6818H199.5ZM200.5 104.864C200.5 104.587 200.276 104.364 200 104.364C199.724 104.364 199.5 104.587 199.5 104.864H200.5ZM199.5 108.955C199.5 109.231 199.724 109.455 200 109.455C200.276 109.455 200.5 109.231 200.5 108.955H199.5ZM200.5 117.136C200.5 116.86 200.276 116.636 200 116.636C199.724 116.636 199.5 116.86 199.5 117.136H200.5ZM199.5 121.227C199.5 121.503 199.724 121.727 200 121.727C200.276 121.727 200.5 121.503 200.5 121.227H199.5ZM200.5 129.409C200.5 129.133 200.276 128.909 200 128.909C199.724 128.909 199.5 129.133 199.5 129.409H200.5ZM199.5 133.5C199.5 133.776 199.724 134 200 134C200.276 134 200.5 133.776 200.5 133.5H199.5ZM200.5 141.682C200.5 141.406 200.276 141.182 200 141.182C199.724 141.182 199.5 141.406 199.5 141.682H200.5ZM199.5 145.773C199.5 146.049 199.724 146.273 200 146.273C200.276 146.273 200.5 146.049 200.5 145.773H199.5ZM200.5 153.955C200.5 153.678 200.276 153.455 200 153.455C199.724 153.455 199.5 153.678 199.5 153.955H200.5ZM163 21.5H165.056V20.5H163V21.5ZM173.278 21.5H177.389V20.5H173.278V21.5ZM185.611 21.5H189.722V20.5H185.611V21.5ZM197.944 21.5H200V20.5H197.944V21.5ZM199.5 21V23.0455H200.5V21H199.5ZM199.5 31.2273V35.3182H200.5V31.2273H199.5ZM199.5 43.5V47.5909H200.5V43.5H199.5ZM199.5 55.7727V59.8636H200.5V55.7727H199.5ZM199.5 68.0455V72.1364H200.5V68.0455H199.5ZM199.5 80.3182V84.4091H200.5V80.3182H199.5ZM199.5 92.5909V96.6818H200.5V92.5909H199.5ZM199.5 104.864V108.955H200.5V104.864H199.5ZM199.5 117.136V121.227H200.5V117.136H199.5ZM199.5 129.409V133.5H200.5V129.409H199.5ZM199.5 141.682V145.773H200.5V141.682H199.5ZM199.5 153.955V156H200.5V153.955H199.5Z" fill="#FF7A97"/>
<path d="M34.5 160C34.5 159.724 34.2761 159.5 34 159.5C33.7239 159.5 33.5 159.724 33.5 160H34.5ZM34 210H33.5C33.5 210.276 33.7239 210.5 34 210.5V210ZM163.887 210L161 207.113L158.113 210L161 212.887L163.887 210ZM33.5 162.083C33.5 162.359 33.7239 162.583 34 162.583C34.2761 162.583 34.5 162.359 34.5 162.083H33.5ZM34.5 170.417C34.5 170.141 34.2761 169.917 34 169.917C33.7239 169.917 33.5 170.141 33.5 170.417H34.5ZM33.5 174.583C33.5 174.859 33.7239 175.083 34 175.083C34.2761 175.083 34.5 174.859 34.5 174.583H33.5ZM34.5 182.917C34.5 182.641 34.2761 182.417 34 182.417C33.7239 182.417 33.5 182.641 33.5 182.917H34.5ZM33.5 187.083C33.5 187.359 33.7239 187.583 34 187.583C34.2761 187.583 34.5 187.359 34.5 187.083H33.5ZM34.5 195.417C34.5 195.141 34.2761 194.917 34 194.917C33.7239 194.917 33.5 195.141 33.5 195.417H34.5ZM33.5 199.583C33.5 199.859 33.7239 200.083 34 200.083C34.2761 200.083 34.5 199.859 34.5 199.583H33.5ZM34.5 207.917C34.5 207.641 34.2761 207.417 34 207.417C33.7239 207.417 33.5 207.641 33.5 207.917H34.5ZM35.9242 210.5C36.2004 210.5 36.4242 210.276 36.4242 210C36.4242 209.724 36.2004 209.5 35.9242 209.5V210.5ZM43.6212 209.5C43.3451 209.5 43.1212 209.724 43.1212 210C43.1212 210.276 43.3451 210.5 43.6212 210.5V209.5ZM47.4697 210.5C47.7458 210.5 47.9697 210.276 47.9697 210C47.9697 209.724 47.7458 209.5 47.4697 209.5V210.5ZM55.1667 209.5C54.8905 209.5 54.6667 209.724 54.6667 210C54.6667 210.276 54.8905 210.5 55.1667 210.5V209.5ZM59.0152 210.5C59.2913 210.5 59.5152 210.276 59.5152 210C59.5152 209.724 59.2913 209.5 59.0152 209.5V210.5ZM66.7121 209.5C66.436 209.5 66.2121 209.724 66.2121 210C66.2121 210.276 66.436 210.5 66.7121 210.5V209.5ZM70.5606 210.5C70.8367 210.5 71.0606 210.276 71.0606 210C71.0606 209.724 70.8367 209.5 70.5606 209.5V210.5ZM78.2576 209.5C77.9814 209.5 77.7576 209.724 77.7576 210C77.7576 210.276 77.9814 210.5 78.2576 210.5V209.5ZM82.1061 210.5C82.3822 210.5 82.6061 210.276 82.6061 210C82.6061 209.724 82.3822 209.5 82.1061 209.5V210.5ZM89.803 209.5C89.5269 209.5 89.303 209.724 89.303 210C89.303 210.276 89.5269 210.5 89.803 210.5V209.5ZM93.6515 210.5C93.9276 210.5 94.1515 210.276 94.1515 210C94.1515 209.724 93.9276 209.5 93.6515 209.5V210.5ZM101.348 209.5C101.072 209.5 100.848 209.724 100.848 210C100.848 210.276 101.072 210.5 101.348 210.5V209.5ZM105.197 210.5C105.473 210.5 105.697 210.276 105.697 210C105.697 209.724 105.473 209.5 105.197 209.5V210.5ZM112.894 209.5C112.618 209.5 112.394 209.724 112.394 210C112.394 210.276 112.618 210.5 112.894 210.5V209.5ZM116.742 210.5C117.019 210.5 117.242 210.276 117.242 210C117.242 209.724 117.019 209.5 116.742 209.5V210.5ZM124.439 209.5C124.163 209.5 123.939 209.724 123.939 210C123.939 210.276 124.163 210.5 124.439 210.5V209.5ZM128.288 210.5C128.564 210.5 128.788 210.276 128.788 210C128.788 209.724 128.564 209.5 128.288 209.5V210.5ZM135.985 209.5C135.709 209.5 135.485 209.724 135.485 210C135.485 210.276 135.709 210.5 135.985 210.5V209.5ZM139.833 210.5C140.109 210.5 140.333 210.276 140.333 210C140.333 209.724 140.109 209.5 139.833 209.5V210.5ZM147.53 209.5C147.254 209.5 147.03 209.724 147.03 210C147.03 210.276 147.254 210.5 147.53 210.5V209.5ZM151.379 210.5C151.655 210.5 151.879 210.276 151.879 210C151.879 209.724 151.655 209.5 151.379 209.5V210.5ZM159.076 209.5C158.8 209.5 158.576 209.724 158.576 210C158.576 210.276 158.8 210.5 159.076 210.5V209.5ZM33.5 160V162.083H34.5V160H33.5ZM33.5 170.417V174.583H34.5V170.417H33.5ZM33.5 182.917V187.083H34.5V182.917H33.5ZM33.5 195.417V199.583H34.5V195.417H33.5ZM33.5 207.917V210H34.5V207.917H33.5ZM34 210.5H35.9242V209.5H34V210.5ZM43.6212 210.5H47.4697V209.5H43.6212V210.5ZM55.1667 210.5H59.0152V209.5H55.1667V210.5ZM66.7121 210.5H70.5606V209.5H66.7121V210.5ZM78.2576 210.5H82.1061V209.5H78.2576V210.5ZM89.803 210.5H93.6515V209.5H89.803V210.5ZM101.348 210.5H105.197V209.5H101.348V210.5ZM112.894 210.5H116.742V209.5H112.894V210.5ZM124.439 210.5H128.288V209.5H124.439V210.5ZM135.985 210.5H139.833V209.5H135.985V210.5ZM147.53 210.5H151.379V209.5H147.53V210.5ZM159.076 210.5H161V209.5H159.076V210.5Z" fill="#FF7A97"/>
<path d="M544.5 251C544.5 250.724 544.276 250.5 544 250.5C543.724 250.5 543.5 250.724 543.5 251H544.5ZM544 285V285.5C544.276 285.5 544.5 285.276 544.5 285H544ZM441.113 285L444 287.887L446.887 285L444 282.113L441.113 285ZM446.083 285.5C446.359 285.5 446.583 285.276 446.583 285C446.583 284.724 446.359 284.5 446.083 284.5V285.5ZM454.417 284.5C454.141 284.5 453.917 284.724 453.917 285C453.917 285.276 454.141 285.5 454.417 285.5V284.5ZM458.583 285.5C458.859 285.5 459.083 285.276 459.083 285C459.083 284.724 458.859 284.5 458.583 284.5V285.5ZM466.917 284.5C466.641 284.5 466.417 284.724 466.417 285C466.417 285.276 466.641 285.5 466.917 285.5V284.5ZM471.083 285.5C471.359 285.5 471.583 285.276 471.583 285C471.583 284.724 471.359 284.5 471.083 284.5V285.5ZM479.417 284.5C479.141 284.5 478.917 284.724 478.917 285C478.917 285.276 479.141 285.5 479.417 285.5V284.5ZM483.583 285.5C483.859 285.5 484.083 285.276 484.083 285C484.083 284.724 483.859 284.5 483.583 284.5V285.5ZM491.917 284.5C491.641 284.5 491.417 284.724 491.417 285C491.417 285.276 491.641 285.5 491.917 285.5V284.5ZM496.083 285.5C496.359 285.5 496.583 285.276 496.583 285C496.583 284.724 496.359 284.5 496.083 284.5V285.5ZM504.417 284.5C504.141 284.5 503.917 284.724 503.917 285C503.917 285.276 504.141 285.5 504.417 285.5V284.5ZM508.583 285.5C508.859 285.5 509.083 285.276 509.083 285C509.083 284.724 508.859 284.5 508.583 284.5V285.5ZM516.917 284.5C516.641 284.5 516.417 284.724 516.417 285C516.417 285.276 516.641 285.5 516.917 285.5V284.5ZM521.083 285.5C521.359 285.5 521.583 285.276 521.583 285C521.583 284.724 521.359 284.5 521.083 284.5V285.5ZM529.417 284.5C529.141 284.5 528.917 284.724 528.917 285C528.917 285.276 529.141 285.5 529.417 285.5V284.5ZM533.583 285.5C533.859 285.5 534.083 285.276 534.083 285C534.083 284.724 533.859 284.5 533.583 284.5V285.5ZM541.917 284.5C541.641 284.5 541.417 284.724 541.417 285C541.417 285.276 541.641 285.5 541.917 285.5V284.5ZM544.5 283.111C544.5 282.835 544.276 282.611 544 282.611C543.724 282.611 543.5 282.835 543.5 283.111H544.5ZM543.5 275.556C543.5 275.832 543.724 276.056 544 276.056C544.276 276.056 544.5 275.832 544.5 275.556H543.5ZM544.5 271.778C544.5 271.502 544.276 271.278 544 271.278C543.724 271.278 543.5 271.502 543.5 271.778H544.5ZM543.5 264.222C543.5 264.498 543.724 264.722 544 264.722C544.276 264.722 544.5 264.498 544.5 264.222H543.5ZM544.5 260.444C544.5 260.168 544.276 259.944 544 259.944C543.724 259.944 543.5 260.168 543.5 260.444H544.5ZM543.5 252.889C543.5 253.165 543.724 253.389 544 253.389C544.276 253.389 544.5 253.165 544.5 252.889H543.5ZM444 285.5H446.083V284.5H444V285.5ZM454.417 285.5H458.583V284.5H454.417V285.5ZM466.917 285.5H471.083V284.5H466.917V285.5ZM479.417 285.5H483.583V284.5H479.417V285.5ZM491.917 285.5H496.083V284.5H491.917V285.5ZM504.417 285.5H508.583V284.5H504.417V285.5ZM516.917 285.5H521.083V284.5H516.917V285.5ZM529.417 285.5H533.583V284.5H529.417V285.5ZM541.917 285.5H544V284.5H541.917V285.5ZM544.5 285V283.111H543.5V285H544.5ZM544.5 275.556V271.778H543.5V275.556H544.5ZM544.5 264.222V260.444H543.5V264.222H544.5ZM544.5 252.889V251H543.5V252.889H544.5Z" fill="#FF7A97"/>
<path d="M368.5 76C368.5 75.7239 368.276 75.5 368 75.5C367.724 75.5 367.5 75.7239 367.5 76H368.5ZM368 232H367.5C367.5 232.276 367.724 232.5 368 232.5V232ZM409.887 232L407 229.113L404.113 232L407 234.887L409.887 232ZM367.5 78C367.5 78.2761 367.724 78.5 368 78.5C368.276 78.5 368.5 78.2761 368.5 78H367.5ZM368.5 86C368.5 85.7239 368.276 85.5 368 85.5C367.724 85.5 367.5 85.7239 367.5 86H368.5ZM367.5 90C367.5 90.2761 367.724 90.5 368 90.5C368.276 90.5 368.5 90.2761 368.5 90H367.5ZM368.5 98C368.5 97.7239 368.276 97.5 368 97.5C367.724 97.5 367.5 97.7239 367.5 98H368.5ZM367.5 102C367.5 102.276 367.724 102.5 368 102.5C368.276 102.5 368.5 102.276 368.5 102H367.5ZM368.5 110C368.5 109.724 368.276 109.5 368 109.5C367.724 109.5 367.5 109.724 367.5 110H368.5ZM367.5 114C367.5 114.276 367.724 114.5 368 114.5C368.276 114.5 368.5 114.276 368.5 114H367.5ZM368.5 122C368.5 121.724 368.276 121.5 368 121.5C367.724 121.5 367.5 121.724 367.5 122H368.5ZM367.5 126C367.5 126.276 367.724 126.5 368 126.5C368.276 126.5 368.5 126.276 368.5 126H367.5ZM368.5 134C368.5 133.724 368.276 133.5 368 133.5C367.724 133.5 367.5 133.724 367.5 134H368.5ZM367.5 138C367.5 138.276 367.724 138.5 368 138.5C368.276 138.5 368.5 138.276 368.5 138H367.5ZM368.5 146C368.5 145.724 368.276 145.5 368 145.5C367.724 145.5 367.5 145.724 367.5 146H368.5ZM367.5 150C367.5 150.276 367.724 150.5 368 150.5C368.276 150.5 368.5 150.276 368.5 150H367.5ZM368.5 158C368.5 157.724 368.276 157.5 368 157.5C367.724 157.5 367.5 157.724 367.5 158H368.5ZM367.5 162C367.5 162.276 367.724 162.5 368 162.5C368.276 162.5 368.5 162.276 368.5 162H367.5ZM368.5 170C368.5 169.724 368.276 169.5 368 169.5C367.724 169.5 367.5 169.724 367.5 170H368.5ZM367.5 174C367.5 174.276 367.724 174.5 368 174.5C368.276 174.5 368.5 174.276 368.5 174H367.5ZM368.5 182C368.5 181.724 368.276 181.5 368 181.5C367.724 181.5 367.5 181.724 367.5 182H368.5ZM367.5 186C367.5 186.276 367.724 186.5 368 186.5C368.276 186.5 368.5 186.276 368.5 186H367.5ZM368.5 194C368.5 193.724 368.276 193.5 368 193.5C367.724 193.5 367.5 193.724 367.5 194H368.5ZM367.5 198C367.5 198.276 367.724 198.5 368 198.5C368.276 198.5 368.5 198.276 368.5 198H367.5ZM368.5 206C368.5 205.724 368.276 205.5 368 205.5C367.724 205.5 367.5 205.724 367.5 206H368.5ZM367.5 210C367.5 210.276 367.724 210.5 368 210.5C368.276 210.5 368.5 210.276 368.5 210H367.5ZM368.5 218C368.5 217.724 368.276 217.5 368 217.5C367.724 217.5 367.5 217.724 367.5 218H368.5ZM367.5 222C367.5 222.276 367.724 222.5 368 222.5C368.276 222.5 368.5 222.276 368.5 222H367.5ZM368.5 230C368.5 229.724 368.276 229.5 368 229.5C367.724 229.5 367.5 229.724 367.5 230H368.5ZM370.167 232.5C370.443 232.5 370.667 232.276 370.667 232C370.667 231.724 370.443 231.5 370.167 231.5V232.5ZM378.833 231.5C378.557 231.5 378.333 231.724 378.333 232C378.333 232.276 378.557 232.5 378.833 232.5V231.5ZM383.167 232.5C383.443 232.5 383.667 232.276 383.667 232C383.667 231.724 383.443 231.5 383.167 231.5V232.5ZM391.833 231.5C391.557 231.5 391.333 231.724 391.333 232C391.333 232.276 391.557 232.5 391.833 232.5V231.5ZM396.167 232.5C396.443 232.5 396.667 232.276 396.667 232C396.667 231.724 396.443 231.5 396.167 231.5V232.5ZM404.833 231.5C404.557 231.5 404.333 231.724 404.333 232C404.333 232.276 404.557 232.5 404.833 232.5V231.5ZM367.5 76V78H368.5V76H367.5ZM367.5 86V90H368.5V86H367.5ZM367.5 98V102H368.5V98H367.5ZM367.5 110V114H368.5V110H367.5ZM367.5 122V126H368.5V122H367.5ZM367.5 134V138H368.5V134H367.5ZM367.5 146V150H368.5V146H367.5ZM367.5 158V162H368.5V158H367.5ZM367.5 170V174H368.5V170H367.5ZM367.5 182V186H368.5V182H367.5ZM367.5 194V198H368.5V194H367.5ZM367.5 206V210H368.5V206H367.5ZM367.5 218V222H368.5V218H367.5ZM367.5 230V232H368.5V230H367.5ZM368 232.5H370.167V231.5H368V232.5ZM378.833 232.5H383.167V231.5H378.833V232.5ZM391.833 232.5H396.167V231.5H391.833V232.5ZM404.833 232.5H407V231.5H404.833V232.5Z" fill="#FF7A97"/>
<rect x="526.25" y="216.25" width="34.5" height="34.5" rx="2.75" fill="url(#paint3_linear_482_247)" stroke="#D3D5D7" stroke-width="0.5"/>
<path d="M549.25 225.75H538.75C537.645 225.75 536.75 226.645 536.75 227.75V238.25C536.75 239.355 537.645 240.25 538.75 240.25H549.25C550.355 240.25 551.25 239.355 551.25 238.25V227.75C551.25 226.645 550.355 225.75 549.25 225.75Z" stroke="#576167" stroke-width="1.5" stroke-linecap="round" stroke-linejoin="round"/>
<path d="M540.75 231.75L543.25 234L540.75 236.25" stroke="#576167" stroke-width="1.5" stroke-linecap="round" stroke-linejoin="round"/>
<rect x="351.25" y="41.25" width="34.5" height="34.5" rx="2.75" fill="url(#paint4_linear_482_247)" stroke="#D3D5D7" stroke-width="0.5"/>
<g clip-path="url(#clip0_482_247)">
<path d="M369 50.75L376.25 55L369 59.25L361.75 55L369 50.75Z" stroke="#576167" stroke-width="1.5" stroke-linecap="round" stroke-linejoin="round"/>
<path d="M366.25 58L361.75 61L369 65.25L376.25 61L371.672 58" stroke="#576167" stroke-width="1.5" stroke-linecap="round" stroke-linejoin="round"/>
</g>
<rect x="212.25" y="338.25" width="34.5" height="34.5" rx="2.75" fill="url(#paint5_linear_482_247)" stroke="#D3D5D7" stroke-width="0.5"/>
<path d="M233.75 351.75L237.25 355L233.75 358.25" stroke="#576167" stroke-width="1.5" stroke-linecap="round" stroke-linejoin="round"/>
<path d="M226.25 351.75L222.75 355L226.25 358.25" stroke="#576167" stroke-width="1.5" stroke-linecap="round" stroke-linejoin="round"/>
<rect x="16.25" y="125.25" width="34.5" height="34.5" rx="2.75" fill="url(#paint6_linear_482_247)" stroke="#D3D5D7" stroke-width="0.5"/>
<path d="M32.25 138.75H26.75M40.25 143.25C40.25 143.25 39.661 139.716 35.7 138.912M32.3 138.912C28.339 139.716 27.75 143.25 27.75 143.25M41.25 138.75H35.75M35.25 139C35.25 139.332 35.1183 139.649 34.8839 139.884C34.6495 140.118 34.3315 140.25 34 140.25C33.6685 140.25 33.3505 140.118 33.1161 139.884C32.8817 139.649 32.75 139.332 32.75 139C32.75 138.668 32.8817 138.351 33.1161 138.116C33.3505 137.882 33.6685 137.75 34 137.75C34.3315 137.75 34.6495 137.882 34.8839 138.116C35.1183 138.351 35.25 138.668 35.25 139ZM29.25 145C29.25 145.332 29.1183 145.649 28.8839 145.884C28.6495 146.118 28.3315 146.25 28 146.25C27.6685 146.25 27.3505 146.118 27.1161 145.884C26.8817 145.649 26.75 145.332 26.75 145C26.75 144.668 26.8817 144.351 27.1161 144.116C27.3505 143.882 27.6685 143.75 28 143.75C28.3315 143.75 28.6495 143.882 28.8839 144.116C29.1183 144.351 29.25 144.668 29.25 145ZM41.25 145C41.25 145.332 41.1183 145.649 40.8839 145.884C40.6495 146.118 40.3315 146.25 40 146.25C39.6685 146.25 39.3505 146.118 39.1161 145.884C38.8817 145.649 38.75 145.332 38.75 145C38.75 144.668 38.8817 144.351 39.1161 144.116C39.3505 143.882 39.6685 143.75 40 143.75C40.3315 143.75 40.6495 143.882 40.8839 144.116C41.1183 144.351 41.25 144.668 41.25 145Z" stroke="#576167" stroke-width="1.5" stroke-linecap="round" stroke-linejoin="round"/>
<rect x="150" y="115" width="35" height="5" rx="2" fill="#FFCDD8"/>
<rect x="391" y="116" width="18" height="3" rx="1.5" fill="#FFCDD8"/>
<rect x="413" y="116" width="18" height="3" rx="1.5" fill="#FFCDD8"/>
<rect x="435" y="116" width="18" height="3" rx="1.5" fill="#FFCDD8"/>
<defs>
<linearGradient id="paint0_linear_482_247" x1="88" y1="122.5" x2="457" y2="325" gradientUnits="userSpaceOnUse">
<stop stop-color="#FFA3B6"/>
<stop offset="1" stop-color="#FFA3B6" stop-opacity="0.68"/>
</linearGradient>
<linearGradient id="paint1_linear_482_247" x1="100" y1="90" x2="496.5" y2="307.5" gradientUnits="userSpaceOnUse">
<stop stop-color="#FFC6D2"/>
<stop offset="1" stop-color="#FFE8ED" stop-opacity="0.78"/>
</linearGradient>
<linearGradient id="paint2_linear_482_247" x1="145.5" y1="4" x2="145.5" y2="39" gradientUnits="userSpaceOnUse">
<stop stop-color="#FAFAFA"/>
<stop offset="1" stop-color="#EDEEEE" stop-opacity="0.98"/>
</linearGradient>
<linearGradient id="paint3_linear_482_247" x1="543.5" y1="216" x2="543.5" y2="251" gradientUnits="userSpaceOnUse">
<stop stop-color="#FAFAFA"/>
<stop offset="1" stop-color="#EDEEEE" stop-opacity="0.98"/>
</linearGradient>
<linearGradient id="paint4_linear_482_247" x1="368.5" y1="41" x2="368.5" y2="76" gradientUnits="userSpaceOnUse">
<stop stop-color="#FAFAFA"/>
<stop offset="1" stop-color="#EDEEEE" stop-opacity="0.98"/>
</linearGradient>
<linearGradient id="paint5_linear_482_247" x1="229.5" y1="338" x2="229.5" y2="373" gradientUnits="userSpaceOnUse">
<stop stop-color="#FAFAFA"/>
<stop offset="1" stop-color="#EDEEEE" stop-opacity="0.98"/>
</linearGradient>
<linearGradient id="paint6_linear_482_247" x1="33.5" y1="125" x2="33.5" y2="160" gradientUnits="userSpaceOnUse">
<stop stop-color="#FAFAFA"/>
<stop offset="1" stop-color="#EDEEEE" stop-opacity="0.98"/>
</linearGradient>
<clipPath id="clip0_482_247">
<rect width="24" height="24" fill="white" transform="translate(357 46)"/>
</clipPath>
</defs>
</svg>
